<svg version="1.2" xmlns="http://www.w3.org/2000/svg" viewBox="0 0 18 18" width="18" height="18">
	<title>gear-svg</title>
	<style>
		.s0 { fill: none;stroke: #000000 }
	</style>
	<path id="Layer" fill-rule="evenodd" class="s0" d="m14.3 7.5l1.9 0.3c0.2 0 0.3 0.1 0.3 0.3v1.8c0 0.1-0.1 0.3-0.3 0.3l-1.9 0.3q-0.2 0.6-0.5 1.2l1.2 1.5c0.1 0.2 0.1 0.3-0.1 0.5l-1.2 1.2c-0.1 0.1-0.3 0.2-0.4 0.1l-1.6-1.2q-0.6 0.3-1.2 0.5l-0.3 1.9c0 0.2-0.2 0.3-0.3 0.3h-1.8c-0.2 0-0.3-0.1-0.3-0.3l-0.4-1.9q-0.5-0.2-1.1-0.4l-1.6 1.1c-0.1 0.1-0.3 0-0.4-0.1l-1.2-1.2c-0.2-0.2-0.2-0.3-0.1-0.5l1.1-1.5q-0.3-0.6-0.4-1.2l-1.9-0.3c-0.2 0-0.3-0.2-0.3-0.3v-1.8c0-0.2 0.1-0.3 0.3-0.3l1.9-0.3q0.1-0.6 0.4-1.2l-1.1-1.6c-0.1-0.1 0-0.3 0.1-0.4l1.2-1.2c0.2-0.2 0.3-0.2 0.5-0.1l1.5 1.1q0.6-0.2 1.2-0.4l0.3-1.9c0-0.2 0.1-0.3 0.3-0.3h1.8c0.1 0 0.3 0.1 0.3 0.3l0.3 1.9q0.6 0.2 1.2 0.5l1.5-1.2c0.2-0.1 0.3-0.1 0.5 0.1l1.2 1.2c0.1 0.1 0.2 0.3 0.1 0.4l-1.2 1.6q0.3 0.6 0.5 1.2zm-7.6 1.5c0 1.3 1 2.3 2.3 2.3 1.3 0 2.3-1 2.3-2.3 0-1.3-1-2.3-2.3-2.3-1.3 0-2.3 1-2.3 2.3z"/>
</svg>
