<?xml version="1.0" encoding="UTF-8" standalone="no"?>
<!-- Created with Inkscape (http://www.inkscape.org/) -->

<svg
   width="180mm"
   height="180mm"
   viewBox="0 0 180 180"
   version="1.1"
   id="svg5"
   xmlSpace="preserve"
   xmlns="http://www.w3.org/2000/svg"
   xmlnsSvg="http://www.w3.org/2000/svg"><defs
     id="defs2" /><g
     id="layer1"><g
       id="g884"
       transform="translate(8.1645028,113.56977)" /><g
       id="g876"
       transform="translate(174.1488,34.085909)"><path
         style="fill:#e6e6e6;fill-opacity:1;stroke-width:0.264583"
         d="m -86.24497,125.81424 c -3.30173,-0.86059 -6.7346,-3.76787 -8.23987,-6.97828 -0.67986,-1.45 -0.81352,-2.09568 -0.91742,-4.43177 l -0.12161,-2.73449 h -36.96598 c -35.47602,0 -36.98362,-0.0195 -37.40386,-0.48386 -0.53712,-0.59351 -0.5606,-1.36383 -0.0623,-2.04526 0.35874,-0.49063 0.81583,-0.51614 10.22526,-0.57064 l 9.84972,-0.0571 1.00531,-0.69668 c 2.38954,-1.65595 3.96492,-5.20312 4.86901,-10.963182 0.0799,-0.50932 0.31667,-1.87854 0.52604,-3.04271 0.36987,-2.0565 0.5162,-3.12671 1.3385,-9.78958 0.43832,-3.55157 0.49315,-3.94435 0.92025,-6.59331 0.76864,-4.767258 1.06514,-5.743447 2.07253,-6.823417 1.27406,-1.365864 2.65466,-1.602878 4.00341,-0.687282 1.96772,1.335786 2.49456,3.334549 4.10117,15.559219 0.50681,3.8563 1.03925,7.78536 1.18322,8.73125 0.14396,0.94588 0.3265,2.19604 0.40565,2.77812 0.41638,3.062172 1.29102,6.271092 2.23625,8.204472 1.63441,3.34301 1.45578,3.25512 6.81584,3.35358 4.49915,0.0827 4.54768,0.0775 4.20731,-0.44555 -0.87748,-1.34846 -1.0213,-2.45536 -0.5243,-4.03545 0.88444,-2.81185 3.07446,-4.456022 6.37143,-4.783372 l 1.78278,-0.17701 0.98483,-2.24896 c 1.85078,-4.22646 2.36344,-6.83542 2.56024,-13.02938 0.0959,-3.01882 0.0975,-5.87632 0.004,-6.35 -0.094,-0.47368 -0.23334,-1.48243 -0.30977,-2.24166 -0.0764,-0.75923 -0.1981,-1.47612 -0.27039,-1.59309 -0.0723,-0.11697 -0.21037,-0.74185 -0.30683,-1.388618 -0.53602,-3.593836 -3.61355,-10.956221 -6.47144,-15.481625 -3.49408,-5.532808 -5.71894,-10.525135 -6.53519,-14.664189 -0.44589,-2.261087 -0.32683,-5.465532 0.34974,-9.412893 0.47521,-2.772526 0.34236,-7.319097 -0.26341,-9.014685 -0.67158,-1.879803 -1.68292,-3.642698 -2.90456,-5.062997 -0.65174,-0.757725 -1.4436,-1.70647 -1.7597,-2.108324 l -0.57472,-0.730642 -1.10708,0.424082 c -0.6089,0.233246 -2.16369,0.866931 -3.45511,1.408189 -1.95193,0.818097 -2.45405,0.935797 -2.97656,0.697728 -0.8301,-0.378217 -0.84724,-1.589292 -0.0332,-2.347439 0.32742,-0.304948 1.72292,-1.04929 3.1011,-1.654093 1.37818,-0.6048 2.58353,-1.147686 2.67855,-1.20641 0.095,-0.05873 -0.1005,-0.646525 -0.43448,-1.306219 -0.33398,-0.659696 -0.65465,-1.341702 -0.71261,-1.515567 -0.079,-0.236967 -0.66386,-0.195549 -2.33589,0.165425 -4.10815,0.886907 -5.00864,0.748924 -5.00864,-0.7674928 0,-1.001956 1.03649,-1.561827 3.86185,-2.08602 1.44124,-0.267395 2.76927,-0.528838 2.95117,-0.580988 0.20259,-0.05808 0.33073,-0.563946 0.33073,-1.3057 0,-0.665985 0.19528,-2.386721 0.43395,-3.823853 0.40222,-2.42186914 0.40222,-2.86339014 0,-6.0370241 -0.51767,-4.084675 -0.55186,-10.4017311 -0.0685,-12.6533671 0.65263,-3.039935 2.14744,-4.891838 3.64515,-4.515937 1.7549,0.440455 6.78428,4.511453 9.43174,7.634462 l 1.04959,1.238128 6.07939,0.02728 6.07939,0.02728 0.46499,-0.709657 c 0.255739,-0.390311 1.432838,-1.718559 2.615774,-2.951663 3.293216,-3.432889 6.589746,-5.589971 8.001336,-5.235683 2.24729,0.564036 3.75457,5.771695 3.45077,11.9224341 -0.0862,1.74625 -0.21158,3.472656 -0.27852,3.836458 -0.56462,3.068852 -0.66839,4.61616096 -0.42065,6.27214296 0.14791,0.98870614 0.4007,2.76855514 0.56176,3.95521914 l 0.29282,2.157572 1.22476,0.200776 c 0.67362,0.110427 1.34382,0.233886 1.48935,0.274357 0.14552,0.04047 0.51763,0.130379 0.82691,0.199795 2.61339,0.586581 3.53871,1.155515 3.53871,2.175788 0,0.7302518 -0.65175,1.4330988 -1.32891,1.4330988 -0.27354,0 -1.18777,-0.180456 -2.03162,-0.401015 -0.84384,-0.22056 -2.14098,-0.472919 -2.88252,-0.560801 l -1.34826,-0.159782 -0.4526,1.383729 c -0.24892,0.76105 -0.41612,1.410512 -0.37153,1.443246 0.0446,0.03274 1.39075,0.722802 2.99148,1.533483 3.23035,1.635985 3.84393,2.344208 2.91767,3.367712 -0.57835,0.639069 -1.32286,0.679055 -2.61228,0.140303 -1.51031,-0.63105 -1.39456,-0.487074 0.83726,1.041397 3.06875,2.101646 5.66245,3.087778 11.95423,4.545018 4.96129,1.149088 10.86207,3.613351 14.97699,6.254646 9.20116,5.906056 17.02476,16.609433 20.74104,28.375604 1.20278,3.808118 2.45009,9.098115 2.26126,9.590216 -0.089,0.231902 -0.0539,0.490694 0.0779,0.575088 0.13185,0.08439 0.44816,1.998914 0.70292,4.254487 0.37858,3.35184 0.43074,5.26108 0.28551,10.45104 -0.21279,7.60452 -0.49801,10.50836 -1.37732,14.02291 -0.69087,2.76135 -2.15245,6.156012 -3.02706,7.030622 -0.2805,0.2805 -0.51239,0.5993 -0.5153,0.70844 -0.003,0.10914 -0.71729,0.99368 -1.5875,1.96563 -0.87021,0.97196 -1.58234,1.8054 -1.5825,1.85209 -1.7e-4,0.0467 2.35132,0.0488 5.22552,0.005 l 5.22582,-0.0802 0.92604,-0.73495 c 1.27551,-1.0123 2.47105,-2.90007 3.1538,-4.97987 0.48616,-1.48094 1.82119,-8.506562 2.30239,-12.116432 0.37364,-2.80291 1.24775,-4.81017 2.47537,-5.68431 1.3811,-0.98343 2.90601,-0.85845 4.19887,0.34412 1.3325,1.23944 1.62791,2.24751 3.50326,11.95478 1.15069,5.956212 2.3948,8.754152 4.6765196,10.517172 0.92923,0.718 0.993,0.72761 4.82833,0.72761 4.10509999,0 5.42928,0.25133 5.69243,1.08045 0.24672,0.77733 -0.11388,1.56881 -0.84063,1.84513 -0.39210001,0.14907 -9.70049,0.24943 -23.1363696,0.24943 H -44.4054 l -1.51338,0.6353 c -4.33655,1.82043 -7.83427,2.40739 -14.34568,2.40739 -4.45068,0 -4.79606,-0.039 -9.24677,-1.04366 -3.05629,-0.68991 -6.66711,-0.89439 -7.41733,-0.42001 -0.3293,0.20823 -0.27852,0.36675 0.31654,0.98814 1.7582,1.83598 2.39702,5.27055 1.41671,7.61679 -1.41886,3.39578 -6.38567,5.17614 -11.04919,3.96059 z m 2.79736,-4.28882 c 0.0932,-0.69122 0.21248,-1.49489 0.26505,-1.78593 0.38718,-2.14345 0.72849,-4.90508 0.65216,-5.27675 -0.0748,-0.3644 -0.53233,-0.16775 -2.47307,1.06301 -1.30969,0.83057 -2.72844,1.70172 -3.15278,1.93589 -1.12931,0.6232 -2.00659,1.40016 -2.00659,1.77713 0,0.86061 4.41304,3.54343 5.82868,3.54343 0.65529,0 0.73168,-0.1083 0.88655,-1.25678 z m 2.91568,0.88798 c 0.9725,-0.40634 2.142,-1.77535 2.39988,-2.80928 0.2334,-0.93579 -0.42836,-2.33061 -1.68314,-3.54761 -0.77314,-0.74987 -1.1058,-0.93309 -1.20097,-0.66146 -0.22395,0.63917 -0.95497,4.00326 -1.07696,4.95608 -0.0637,0.4972 -0.18667,1.12746 -0.27335,1.40058 -0.33067,1.04183 0.3431,1.28485 1.83454,0.66169 z m -8.99262,-5.50798 c 0.74035,-0.46733 2.52124,-1.60833 3.95755,-2.53555 l 2.61147,-1.68586 -1.98409,-0.86252 c -1.09125,-0.47438 -2.88589,-1.35745 -3.98807,-1.96236 -1.10219,-0.60492 -2.05294,-1.09985 -2.11279,-1.09985 -0.2662,0 -0.96493,2.39283 -1.12129,3.8399 -0.19336,1.78951 0.53094,5.15593 1.10932,5.15593 0.1,0 0.78756,-0.38236 1.5279,-0.84969 z m 7.95868,-7.55831 c 0.10469,-0.97815 0.22695,-1.96874 0.27168,-2.20131 0.0447,-0.23257 0.15799,-1.066 0.2517,-1.85208 0.0937,-0.78608 0.23111,-1.63759 0.30534,-1.89225 0.15943,-0.54693 -0.26951,-0.58248 -2.01736,-0.1672 -0.65484,0.15559 -1.30969,0.31116 -1.45521,0.3457 -1.00842,0.23937 -4.09532,2.02209 -5.11718,2.95523 l -1.23282,1.12577 3.43959,1.62085 c 1.89177,0.89147 3.73541,1.78482 4.09698,1.98523 0.94365,0.52304 1.2372,0.1363 1.45728,-1.91994 z m 23.46579,1.66113 c -0.11554,-0.72694 -2.1502,-6.30394 -2.38741,-6.54389 -0.10542,-0.10663 -1.61062,1.22878 -3.34491,2.9676 -1.73428,1.73881 -3.08413,3.23059 -2.99965,3.31506 0.36838,0.36839 4.25387,0.87107 6.43483,0.8325 2.22154,-0.0393 2.37561,-0.0776 2.29714,-0.57127 z m 7.2836,-0.53399 c 1.83191,-0.53255 5.58729,-2.17849 6.37733,-2.79511 l 0.61223,-0.47785 -1.00911,-0.26739 c -0.55501,-0.14707 -1.48536,-0.38434 -2.06744,-0.52728 -0.58208,-0.14294 -1.9513,-0.49031 -3.04271,-0.77194 -2.0785,-0.53634 -6.38275,-1.52328 -7.89813,-1.81099 -0.98801,-0.18759 -1.47294,0.23581 -1.08025,0.94316 0.12841,0.23131 0.67049,1.73024 1.20462,3.33097 0.53412,1.60073 1.07327,3.04202 1.19809,3.20287 0.25398,0.3273 3.20912,-0.10076 5.70537,-0.82644 z m -27.06209,-0.24901 c 1.76605,-0.45406 4.1365,-0.56041 6.10427,-0.27385 1.51328,0.22036 1.54253,0.26385 -1.21841,-1.81113 -1.10669,-0.83173 -2.94297,-2.28609 -4.08063,-3.23192 -1.13765,-0.94582 -2.15845,-1.62715 -2.26845,-1.51406 -0.25362,0.26077 -1.28491,7.01285 -1.11406,7.29399 0.0699,0.11506 0.32546,0.14869 0.56788,0.0747 0.24241,-0.0739 1.14664,-0.31595 2.0094,-0.53777 z m 13.88483,-4.47363 c 0.60993,-0.70833 1.04358,-1.35326 0.96367,-1.43317 -0.0799,-0.0799 -0.88944,-0.11941 -1.79894,-0.0878 -2.11101,0.0735 -7.77528,-0.62511 -9.99703,-1.23291 -0.94092,-0.25741 -1.85959,-0.45048 -2.04149,-0.42904 -0.1819,0.0214 -0.46534,0.0539 -0.62988,0.0721 -0.16452,0.0182 0.34149,0.53617 1.12448,1.15105 0.783,0.61489 1.48316,1.18725 1.55592,1.27191 0.0728,0.0847 1.08479,0.87485 2.24896,1.75596 1.16416,0.88111 2.62991,2.03179 3.25721,2.55705 l 1.14054,0.95503 1.5338,-1.64615 c 0.84359,-0.90538 2.03283,-2.2257 2.64276,-2.93403 z m -64.2691,2.88864 c 0,-0.0655 -0.34103,-0.63101 -0.75784,-1.25677 -0.41681,-0.62576 -0.99886,-1.79259 -1.29345,-2.59295 -0.53614,-1.45665 -1.49313,-6.111342 -1.76791,-8.598962 -0.0804,-0.7276 -0.31671,-2.45401 -0.52519,-3.83646 -0.43281,-2.86992 -0.51669,-3.48473 -1.04681,-7.67291 -0.21182,-1.67349 -0.39131,-3.2213 -0.39885,-3.43959 -0.007,-0.21828 -0.18692,-1.23031 -0.39861,-2.24895 -0.21169,-1.01865 -0.45924,-2.38787 -0.55011,-3.04271 -0.24129,-1.7388 -0.62152,-2.78493 -1.20373,-3.311815 -0.42959,-0.388777 -0.5829,-0.408398 -0.93137,-0.119203 -0.78188,0.648908 -1.45702,2.939598 -1.85209,6.284018 -0.0639,0.5409 -0.23335,1.75736 -0.37658,2.70325 -0.34965,2.30922 -0.47612,3.28026 -0.67197,5.15937 -0.38603,3.70382 -1.76892,12.67634 -2.22951,14.465522 -0.7562,2.93753 -1.55592,4.87469 -2.5501,6.17715 l -0.89888,1.1776 7.8666,0.0742 c 4.32663,0.0408 8.25356,0.10209 8.7265,0.13622 0.47295,0.0341 0.8599,0.008 0.8599,-0.057 z m 33.88802,-1.05761 c 0.72074,-1.44314 3.65717,-4.44098 5.27031,-5.38053 0.65484,-0.38141 1.27508,-0.81744 1.37831,-0.96897 0.3328,-0.48852 2.00694,-5.799342 2.19089,-6.950052 0.11862,-0.74209 0.0292,-1.62655 -0.26759,-2.64583 -0.24517,-0.84211 -0.48682,-1.7097 -0.53699,-1.92798 -0.10289,-0.44768 -0.90248,-3.36181 -1.08845,-3.9669 -0.13751,-0.44743 -1.06661,1.65825 -3.0345,6.87732 -2.03895,5.40753 -4.25844,10.263262 -6.03715,13.207882 -0.880191,1.45715 -1.600352,2.71289 -1.600352,2.79053 0,0.0776 0.706022,0.14117 1.568942,0.14117 h 1.56893 z m 82.79326,0.95013 c -2e-5,-0.0518 -0.36381,-0.55352 -0.80843,-1.11489 -1.1797,-1.4895 -2.42685,-4.80973 -3.00035,-7.987722 -0.0725,-0.40159 -0.26412,-1.47316 -0.42588,-2.38125 -1.62211,-9.1063 -2.18925,-10.59253 -3.65129,-9.56848 -0.70048,0.49063 -1.2372,2.23099 -1.74813,5.66843 -0.22711,1.52797 -0.59615,4.00191 -0.82009,5.49764 -0.22395,1.495732 -0.70068,3.638862 -1.05942,4.762502 -0.68875,2.1573 -2.07821,4.82111 -2.51472,4.82111 -0.14257,0 -0.25886,0.0893 -0.25842,0.19844 5.3e-4,0.10914 3.21515,0.19844 7.14379,0.19844 3.92863,0 7.14295,-0.0424 7.14294,-0.0942 z m -92.16593,-0.42249 c -0.28539,-0.74372 -3.60008,-5.70085 -3.80387,-5.68872 -0.11345,0.007 -1.00178,1.37598 -1.97407,3.04271 l -1.76779,3.03043 h 3.84662 c 3.25513,0 3.82394,-0.0591 3.69911,-0.38442 z m -6.97818,-2.96826 c 0.84143,-1.54214 1.4781,-2.85566 1.41482,-2.91895 -0.0633,-0.0633 -0.6245,0.0376 -1.24715,0.22414 -1.52925,0.45817 -3.15307,2.01923 -3.15177,3.02996 0.001,0.771 0.87275,2.49693 1.25189,2.47855 0.11128,-0.005 0.89078,-1.27156 1.73221,-2.8137 z m 9.92934,1.30216 c 0.56534,-0.83675 1.651619,-2.68222 2.413944,-4.10105 1.190694,-2.2161 1.315617,-2.579682 0.886352,-2.579682 -0.274833,0 -2.279407,0.297192 -4.454606,0.660422 -2.1752,0.36323 -3.98468,0.66089 -4.02106,0.66146 -0.18326,0.003 -0.0339,1.04805 0.16754,1.17256 0.12853,0.0794 0.96386,1.39615 1.85631,2.92603 0.89245,1.52989 1.73535,2.78161 1.87313,2.78161 0.13777,0 0.71305,-0.68461 1.27839,-1.52135 z m 59.85509,-2.17066 c 1.42415,-1.52003 2.3158,-2.81238 2.08591,-3.02328 -0.24492,-0.22471 -8.06316,-0.8941 -8.26061,-0.70727 -0.11686,0.11058 0.45998,1.34964 1.28187,2.75347 1.45444,2.48427 1.52001,2.55242 2.45561,2.55242 0.8324,0 1.15912,-0.21118 2.43722,-1.57534 z m -5.62703,0.31857 c -0.39645,-0.4496 -1.4645,-2.63325 -1.49286,-3.05215 -0.0445,-0.65682 -0.88143,-1.02128 -1.95525,-0.8514 -0.61623,0.0975 -1.41808,0.22168 -1.78188,0.27599 -0.3638,0.0543 -1.91162,0.29484 -3.43958,0.53451 -1.52797,0.23966 -2.92696,0.44329 -3.10886,0.45251 -0.1819,0.009 -0.33073,0.0914 -0.33073,0.18252 0,0.13473 2.33468,0.68954 6.21771,1.47757 0.29104,0.0591 1.60073,0.39523 2.91042,0.74703 1.30968,0.35179 2.60806,0.65241 2.88528,0.66804 0.45942,0.0259 0.4679,-0.0126 0.0958,-0.43462 z m -11.84457,-4.03487 c 0.80036,-0.12833 1.99099,-0.29552 2.64583,-0.37154 3.23715,-0.375792 3.96875,-0.508682 3.96875,-0.720902 0,-0.12678 -0.0893,-0.23961 -0.19844,-0.25074 -0.10914,-0.0111 -0.43656,-0.0775 -0.7276,-0.1474 -1.15804,-0.27826 -1.71474,-0.3928 -5.00606,-1.02998 l -3.41856,-0.66181 -1.87311,0.5139 c -3.16519,0.86838 -6.53432,2.178252 -6.42886,2.499462 0.0544,0.1657 0.74452,0.37744 1.53359,0.47053 1.73269,0.2044 7.48769,0.0218 9.50446,-0.30152 z m -17.06563,-1.019602 c 0,-0.12972 -0.65484,-0.80801 -1.45521,-1.50731 -0.80036,-0.6993 -2.2555,-2.04739 -3.23364,-2.99576 -0.97813,-0.94837 -1.84494,-1.6578 -1.92622,-1.57652 -0.0813,0.0813 -0.25449,0.80337 -0.3849,1.60463 -0.13041,0.80125 -0.38597,1.97836 -0.56791,2.61578 -0.18194,0.63743 -0.30977,1.24826 -0.28407,1.3574 0.0257,0.10914 -0.0686,0.19844 -0.20954,0.19844 -0.14095,0 -0.19928,0.14883 -0.12962,0.33073 0.15033,0.39252 8.19111,0.36564 8.19111,-0.0274 z m 10.25261,-2.46459 c 1.41882,-0.47393 2.56576,-0.92567 2.54875,-1.00387 -0.06,-0.27601 -4.94925,-4.77238 -5.18933,-4.77238 -0.1339,0 -0.71076,0.6624 -1.28191,1.472 -0.57115,0.80961 -1.78259,2.46042 -2.6921,3.66847 -0.9095,1.20806 -1.65364,2.2887 -1.65364,2.40144 0,0.11273 0.19744,0.34934 0.43877,0.5258 0.35744,0.26137 0.88461,0.15861 2.84427,-0.55446 1.32302,-0.48142 3.56636,-1.26307 4.98519,-1.737 z m 26.53111,0.5076 c -0.0994,-1.20054 -0.29851,-2.64242 -0.44247,-3.20416 l -0.26173,-1.02135 -0.57726,0.51877 c -0.31749,0.28531 -1.70835,1.4576 -3.0908,2.60507 -3.4609,2.87265 -3.30087,2.67665 -2.3054,2.8237 0.46761,0.0691 1.859,0.14818 3.092,0.17579 1.23299,0.0276 2.29463,0.10303 2.3592,0.1676 0.0646,0.0646 0.4076,0.1174 0.76229,0.1174 h 0.6449 z m -61.52226,1.09767 c 1.382449,-0.27355 2.60284,-0.49849 2.71198,-0.49986 0.456465,-0.006 0.08317,-0.62322 -2.063223,-3.41295 -2.146447,-2.7898 -2.754197,-3.36132 -2.774217,-2.60881 -0.005,0.1819 -0.64112,1.91281 -1.41396,3.84648 l -1.40516,3.51576 1.21552,-0.17162 c 0.66854,-0.0944 2.34661,-0.39544 3.72906,-0.669 z m 50.8,-0.23555 c 0,-0.32336 -3.6921,-6.88139 -3.87415,-6.88139 -0.0721,0 -1.10513,0.69111 -2.29565,1.53579 -1.19052,0.84468 -2.5478,1.76111 -3.01617,2.03651 -1.39944,0.82287 -1.27633,1.11088 0.61571,1.44037 0.94236,0.1641 3.10735,0.70513 4.81109,1.20228 3.39395,0.99035 3.75917,1.05509 3.75917,0.66644 z m 2.64854,-0.61043 c 0.36231,-0.33451 2.02797,-1.71823 3.70146,-3.07492 1.67349,-1.35669 3.04271,-2.55183 3.04271,-2.65586 0,-0.10404 -1.07157,-2.22904 -2.38125,-4.72221 -1.47253,-2.80317 -2.53271,-4.53238 -2.77813,-4.53126 -0.21828,0.001 -0.69453,0.40611 -1.05833,0.90028 -0.3638,0.49416 -1.77522,2.17925 -3.13648,3.74464 -1.36127,1.56539 -2.53203,2.99472 -2.6017,3.17628 -0.10797,0.28136 1.09639,2.5407 3.61366,6.77907 0.32411,0.54571 0.66804,0.99219 0.76429,0.99219 0.0963,0 0.47145,-0.27369 0.83377,-0.60821 z m -25.57131,-2.68089 c 1.14419,-1.65489 2.35775,-3.47408 2.69681,-4.04264 l 0.61645,-1.03375 -3.14384,-3.15411 c -1.72912,-1.73477 -3.24034,-3.17954 -3.35827,-3.21062 -0.4417,-0.11638 -6.01464,7.97214 -5.82795,8.45864 0.0704,0.18343 1.32531,1.34215 2.78873,2.57494 1.46341,1.23279 2.66789,2.37206 2.67663,2.53173 0.0135,0.24721 0.92565,0.84309 1.33879,0.8746 0.0728,0.006 1.06845,-1.3439 2.21265,-2.99879 z m 35.85784,-0.0253 c 0.46869,-2.41612 0.84359,-5.41683 0.67677,-5.41683 -0.0378,0 -0.56828,0.59655 -1.17873,1.32567 l -1.10991,1.32566 0.29917,2.18007 c 0.16455,1.19903 0.32153,2.50549 0.34887,2.90324 0.086,1.25092 0.43386,0.41431 0.96383,-2.31781 z m -57.63162,-2.33065 c 0.75996,-2.0612 1.66211,-4.38753 2.00477,-5.16962 0.34267,-0.78209 0.62303,-1.46829 0.62303,-1.5249 0,-0.0566 -2.0832,0.94048 -4.62934,2.21574 -2.696823,1.35072 -4.58199,2.44619 -4.51589,2.62418 0.0624,0.16804 1.103805,1.67952 2.314237,3.35883 1.845103,2.55985 2.250943,2.98786 2.511113,2.64836 0.17068,-0.22272 0.93212,-2.09138 1.69208,-4.15259 z m 36.79279,-0.0558 c 1.87321,-1.2386 3.40584,-2.34974 3.40584,-2.4692 0,-0.11947 -0.33404,-0.68156 -0.74231,-1.2491 -0.40828,-0.56753 -1.78835,-2.7282 -3.06684,-4.80149 -1.27849,-2.07329 -2.41759,-3.82713 -2.53135,-3.89744 -0.11376,-0.0703 -1.7034,2.10227 -3.53253,4.82794 l -3.3257,4.95578 0.71239,0.63412 c 0.39181,0.34877 1.65679,1.51405 2.81106,2.58952 1.29429,1.20593 2.24526,1.89914 2.48113,1.80862 0.21036,-0.0807 1.9151,-1.16016 3.78831,-2.39876 z m 18.75167,-1.6924 c 0,-0.13723 0.70685,-1.06874 1.57077,-2.07003 l 1.57076,-1.82051 0.18809,-4.27998 c 0.17996,-4.09495 0.16638,-4.2795 -0.31399,-4.26922 -0.27615,0.006 -2.22849,0.70038 -4.33854,1.54327 -3.23991,1.29423 -3.82214,1.61141 -3.74437,2.03978 0.0507,0.27898 1.09244,2.31685 2.3151,4.52858 1.22266,2.21174 2.22302,4.14651 2.22302,4.29948 0,0.15298 0.11906,0.27814 0.26458,0.27814 0.14552,0 0.26458,-0.11228 0.26458,-0.24951 z m -40.62552,-4.85835 c 1.27593,-1.86344 2.2763,-3.43164 2.22305,-3.48489 -0.0532,-0.0533 -0.87018,-0.28646 -1.8154,-0.51823 -0.94522,-0.23178 -2.61155,-0.65584 -3.70296,-0.94236 -1.0914,-0.28652 -2.08901,-0.52298 -2.2169,-0.52547 -0.4883,-0.01 0.41963,4.4226 1.72114,8.4018 l 0.54277,1.65945 0.46422,-0.60112 c 0.25531,-0.33061 1.50816,-2.12574 2.78408,-3.98918 z m 28.5288,0.80838 c 1.11683,-1.34607 2.56907,-3.01643 3.2272,-3.71192 0.65814,-0.69549 1.19661,-1.35826 1.19661,-1.47283 0,-0.18705 -3.175,-0.85789 -5.95313,-1.25782 -1.48692,-0.21406 -5.96149,-1.13814 -6.18753,-1.27784 -0.10325,-0.0638 -0.32227,-0.0329 -0.48672,0.0688 -0.19486,0.12043 0.77699,1.9103 2.79076,5.13975 1.69936,2.72523 3.15555,4.95594 3.23598,4.95714 0.0804,0.001 1.06,-1.09917 2.17683,-2.44524 z m -41.14343,-2.46308 c 1.16428,-0.69723 4.29224,-3.73204 4.29224,-4.16443 0,-0.32613 -3.53341,-0.77218 -8.9011,-1.12366 l -2.683387,-0.17572 -0.301339,1.81371 c -0.165737,0.99753 -0.359835,2.28995 -0.431335,2.87204 -0.0715,0.58208 -0.245509,1.7727 -0.386709,2.64583 -0.49575,3.06568 -0.72282,3.00737 3.377308,0.86728 2.000912,-1.04439 4.266352,-2.27517 5.034322,-2.73505 z m 24.52493,3.51137 c 1.7225,-2.44284 5.69648,-8.48408 5.69648,-8.65977 0,-0.28063 -12.25257,2.90866 -12.63195,3.28805 -0.0951,0.0951 0.85354,1.21088 2.10798,2.47963 1.25444,1.26875 2.61422,2.69378 3.02172,3.16672 0.4075,0.47294 0.8037,0.85537 0.88043,0.84985 0.0767,-0.006 0.49314,-0.51153 0.92534,-1.12448 z m -34.12266,-1.90818 c 0.22762,-1.30969 0.41136,-2.64744 0.40831,-2.97279 -0.003,-0.32534 0.15613,-1.36275 0.35371,-2.30536 0.19759,-0.9426 0.29533,-1.77774 0.21721,-1.85586 -0.0781,-0.0781 -0.41985,-0.14204 -0.7594,-0.14204 h -0.61736 l -0.003,4.0349 c -0.002,2.21919 -0.0622,4.51115 -0.13469,5.09323 -0.22038,1.76983 0.0959,0.6752 0.53513,-1.85208 z m 24.4733,-5.03633 c 0,-0.20296 -4.70049,-8.932949 -5.11498,-9.499789 -0.3142,-0.4297 -0.38656,-0.366697 -0.78248,0.681317 -0.54113,1.432402 -1.77388,6.027942 -1.77479,6.616192 -5.3e-4,0.31749 0.47972,0.54998 1.78527,0.86434 0.98227,0.23652 2.61938,0.65929 3.63803,0.9395 2.06585,0.56827 2.24895,0.60071 2.24895,0.39844 z m 7.54063,-1.17416 c 2.03729,-0.59245 4.56737,-1.28264 5.62239,-1.53376 1.05503,-0.25111 1.91823,-0.58723 1.91823,-0.74693 0,-0.1597 -1.11164,-2.58704 -2.47033,-5.394091 l -2.47032,-5.10372 -1.99206,3.67366 c -1.09563,2.020511 -2.78874,5.206881 -3.76246,7.080821 -1.59848,3.07629 -1.71113,3.39231 -1.16001,3.25418 0.33571,-0.0841 2.27727,-0.63771 4.31456,-1.23016 z m -2.90536,-5.1666 c 1.7097,-3.346976 3.39527,-6.591429 3.74571,-7.209893 0.73386,-1.295122 0.67571,-1.31591 -1.73787,-0.621392 -0.96157,0.276696 -3.71285,1.01065 -6.11394,1.631005 -2.40109,0.620358 -4.4728,1.22147 -4.60379,1.335805 -0.27694,0.241736 0.83148,2.655998 2.9622,6.451975 0.81681,1.45521 1.70726,3.10383 1.97876,3.66359 0.2715,0.55977 0.53116,0.97649 0.57701,0.92604 0.0459,-0.0504 1.48222,-2.83015 3.19192,-6.17713 z m 35.57973,2.77813 c 0.47908,0 0.29427,-0.61968 -1.1047,-3.70417 -1.56735,-3.45574 -1.48985,-3.312804 -1.68854,-3.114115 -0.1754,0.175395 -3.66474,8.272035 -3.92755,9.113475 -0.16287,0.52143 0.13141,0.44078 3.1374,-0.85989 1.82442,-0.78942 3.43694,-1.4353 3.58339,-1.4353 z m -9.95588,2.3151 c -0.10955,-0.1819 -0.93046,-1.40229 -1.82423,-2.71198 -0.89378,-1.30968 -2.55677,-3.92906 -3.69554,-5.82083 -1.13878,-1.891771 -2.2299,-3.613925 -2.42471,-3.82701 -0.30809,-0.336968 -0.35422,-0.324819 -0.35422,0.09328 0,0.26439 -0.82397,2.47406 -1.83104,4.910378 -1.00708,2.436322 -1.87028,4.655472 -1.91823,4.931452 -0.0873,0.50246 0.44905,0.67996 3.88156,1.28456 0.43656,0.0769 2.2225,0.43002 3.96875,0.78472 3.73692,0.75906 4.47858,0.82186 4.19766,0.35543 z m 3.2831,-3.37344 c 1.66427,-3.907777 2.79181,-6.88125 2.65953,-7.013528 -0.33626,-0.336259 -12.20929,-3.146287 -12.6532,-2.994673 -0.13902,0.04748 1.0872,2.229456 2.72494,4.848831 4.30417,6.88402 5.52034,8.66137 5.76013,8.41801 0.11701,-0.11876 0.79588,-1.58515 1.5086,-3.25864 z m -44.12555,2.15819 c 0,-0.42744 -9.877138,-10.907768 -10.082751,-10.698501 -0.111292,0.113268 -0.33813,1.277503 -0.504087,2.587191 -0.165957,1.309687 -0.351875,2.67891 -0.413147,3.04271 -0.06127,0.3638 -0.186534,1.4463 -0.278355,2.40555 l -0.166952,1.74409 2.216922,0.18106 c 1.2193,0.0996 3.16941,0.25088 4.33358,0.33621 1.16417,0.0853 2.5282,0.23529 3.03119,0.33325 1.03344,0.20127 1.8636,0.23176 1.8636,0.0684 z m 2.7554,-4.42928 c 0.6915,-2.267743 1.21763,-4.156386 1.16917,-4.196978 -0.0485,-0.0406 -1.33827,-0.344882 -2.86624,-0.676196 -1.52796,-0.331316 -4.34603,-0.976617 -6.26236,-1.434004 -3.89553,-0.929783 -3.94881,-0.894887 -1.78641,1.169939 1.04453,0.997408 3.41512,3.60017 7.32055,8.037539 0.39984,0.4543 0.72726,0.9153 0.7276,1.02444 2.7e-4,0.10914 0.0996,0.19844 0.22052,0.19844 0.12094,0 0.78567,-1.85543 1.47717,-4.12318 z m -15.34604,2.46953 c 0.0657,-0.32742 0.255399,-1.7264 0.421559,-3.10885 0.166169,-1.38245 0.342734,-2.769324 0.392369,-3.081945 0.334915,-2.109428 0.427744,-3.536971 0.231678,-3.562808 -0.294262,-0.03878 -1.427956,-0.154898 -3.325466,-0.340617 -0.82997,-0.08123 -1.5616,-0.0608 -1.62584,0.0454 -0.0642,0.106201 0.10589,0.907468 0.37805,1.780593 0.27218,0.873125 0.74262,2.956719 1.04543,4.630207 0.30282,1.67349 0.60567,3.3106 0.67301,3.63802 0.0937,0.45581 0.30607,0.59531 0.9061,0.59531 0.60092,0 0.81152,-0.13883 0.90311,-0.59531 z m 41.43756,-2.77812 c 1.32781,-3.227353 2.16125,-5.43814 2.64324,-7.011461 l 0.2229,-0.727604 h -4.87632 c -4.14851,0 -4.87632,0.05897 -4.87632,0.395123 0,0.485072 5.08478,10.717372 5.32583,10.717372 0.095,0 0.79732,-1.51804 1.56067,-3.37343 z m 23.15226,-0.0834 c -0.21869,-3.314121 -0.3387,-3.650399 -1.372,-3.844246 -0.5006,-0.09391 -0.97907,-0.10187 -1.06327,-0.01767 -0.22238,0.222388 2.15042,5.731276 2.4686,5.731276 0.0495,0 0.0345,-0.84121 -0.0333,-1.86936 z m -0.77224,-5.737416 c -0.0793,-0.400182 -0.2235,-1.203854 -0.32035,-1.785937 -0.0968,-0.582084 -0.2464,-1.177396 -0.33234,-1.322917 -0.0859,-0.145521 -0.18043,-0.42432 -0.20998,-0.619556 -0.13618,-0.899671 -0.34018,-0.451266 -0.6633,1.458039 -0.19286,1.139563 -0.35189,2.189827 -0.35342,2.333919 -0.002,0.217519 0.75491,0.483081 1.8042,0.632753 0.1207,0.01722 0.15454,-0.296119 0.0752,-0.696301 z M -85.673,64.30931 c -1.15511,-2.328334 -2.18548,-4.233333 -2.28971,-4.233333 -0.23449,0 -4.83284,2.999128 -6.37872,4.160326 -0.62474,0.469273 -1.33911,0.967915 -1.5875,1.108096 -0.66261,0.373941 -0.1392,0.757129 1.29886,0.950894 0.67173,0.09051 3.17204,0.62058 5.55625,1.177936 2.38422,0.557358 4.5973,1.025985 4.91797,1.041394 0.53312,0.02561 0.40324,-0.334401 -1.51715,-4.205313 z m 15.63053,1.188939 1.73184,-0.477017 -4.90427,-4.834398 c -2.69735,-2.658917 -4.93701,-4.801653 -4.97703,-4.761634 -0.0946,0.09456 -0.866,3.000091 -1.02407,3.857027 -0.0671,0.363802 -0.34424,1.613958 -0.61584,2.778124 -0.2716,1.164167 -0.56083,2.546903 -0.64274,3.072749 -0.0819,0.525847 -0.2712,1.277739 -0.42067,1.670871 -0.66852,1.758349 -0.68025,1.757261 4.42459,0.410389 2.583,-0.681503 5.47568,-1.453753 6.42819,-1.716111 z m 28.97197,2.02429 c -0.13765,-0.433684 -2.71648,-4.892167 -4.07761,-7.049688 -0.27542,-0.436562 -1.01188,-1.668584 -1.63659,-2.737828 l -1.13583,-1.944077 -0.47106,0.62116 c -0.25909,0.341641 -1.21095,1.871319 -2.11524,3.399287 -0.9043,1.527969 -1.92199,3.222056 -2.26155,3.76464 -0.33956,0.542584 -0.61738,1.100008 -0.61738,1.238723 0,0.138716 0.92273,0.449768 2.05052,0.691232 1.12779,0.241464 3.83646,0.889791 6.01927,1.440731 2.18281,0.550939 4.06607,1.016343 4.18502,1.034232 0.11894,0.01789 0.14615,-0.188397 0.0605,-0.458412 z m -41.01404,-1.295 c 0.52601,-1.80666 0.40424,-1.282245 1.5359,-6.614583 0.60373,-2.844779 0.81095,-4.299479 0.61244,-4.299479 -0.37961,0 -6.52178,3.699943 -6.52449,3.93025 -0.002,0.210791 3.76427,8.505166 3.86249,8.505166 0.0389,0 0.27005,-0.68461 0.51366,-1.521354 z m 43.23811,-1.982094 c 0.65773,-2.645463 0.72451,-3.842234 0.30169,-5.406276 -0.25521,-0.944079 -0.42279,-1.128938 -1.15366,-1.272646 -0.47029,-0.09247 -2.14474,-0.587801 -3.72101,-1.100728 -1.57626,-0.512926 -2.90933,-0.889198 -2.96238,-0.836154 -0.053,0.05304 1.08781,2.094568 2.53521,4.536728 1.44741,2.442157 2.63165,4.551979 2.63165,4.68849 0,0.136509 0.11045,0.248201 0.24544,0.248201 0.135,0 0.4565,0.478366 0.71446,1.06304 0.56134,1.272307 0.64216,1.162103 1.4086,-1.920655 z m -61.45162,0.725163 c -0.3124,-0.291042 -0.65623,-0.529167 -0.76407,-0.529167 -0.10784,0 -0.43941,-0.208359 -0.73683,-0.463021 -0.29743,-0.254661 -0.62871,-0.464084 -0.73619,-0.465386 -0.10747,-0.0013 -0.96011,-0.595902 -1.89473,-1.321334 -0.93463,-0.725435 -1.73759,-1.280713 -1.78435,-1.233953 -0.0468,0.04676 0.35444,1.052436 0.89154,2.234832 1.08265,2.383343 0.95195,2.307196 3.96008,2.307196 h 1.632539 z m 2.87792,-2.38383 c 2.61959,-7.700795 3.53137,-10.558403 3.40821,-10.681564 -0.0773,-0.07731 -0.5759,0.09234 -1.10799,0.376999 -0.53208,0.28466 -1.06316,0.487797 -1.18018,0.451416 -0.11701,-0.03638 -0.21275,0.0423 -0.21275,0.174856 0,0.132548 -1.160862,0.860824 -2.57969,1.618387 -3.91421,2.089936 -7.73906,4.301156 -7.73906,4.474101 0,0.08493 0.92273,0.70929 2.05052,1.387459 1.12779,0.67817 2.31343,1.480577 2.63477,1.783128 0.32134,0.302548 0.68175,0.55009 0.80093,0.55009 0.11917,0 0.6004,0.350475 1.0694,0.778835 0.468989,0.428361 0.852711,0.719265 0.852711,0.646457 0,-0.07281 0.260707,0.05022 0.57935,0.273412 0.318641,0.223184 0.607536,0.377603 0.64199,0.343151 0.03445,-0.03445 0.386258,-1.013981 0.781789,-2.176727 z m 41.12395,2.089846 c 0,-0.08893 -0.57586,-1.130728 -1.27969,-2.315104 -1.77525,-2.987304 -3.59202,-6.187323 -4.22686,-7.445078 l -0.53419,-1.058334 -0.3104,0.79375 c -0.31403,0.803037 -2.90927,9.7546 -2.90927,10.034733 0,0.08345 2.08359,0.151725 4.6302,0.151725 2.54662,0 4.63021,-0.07276 4.63021,-0.161692 z m -33.73511,-4.954722 c 1.18332,-0.813541 1.44375,-1.119783 1.31018,-1.540626 -0.23853,-0.751541 -3.6125,-6.341637 -3.74662,-6.207517 -0.1936,0.193601 -4.04511,11.592086 -4.04511,11.971438 0,0.204827 1.08317,-0.411306 2.50233,-1.423379 1.37628,-0.981498 3.16693,-2.241463 3.97922,-2.799916 z m 24.8637,-1.016442 c 0.80469,-2.68678 1.46308,-5.095396 1.46308,-5.352481 0,-0.390834 -0.16258,-0.44246 -0.99219,-0.31506 -1.03073,0.158281 -6.09655,0.807638 -8.40052,1.076811 -3.13345,0.366081 -3.83646,0.489652 -3.83646,0.67436 0,0.107696 0.62508,0.762309 1.38907,1.454697 0.76398,0.692386 2.98532,2.801687 4.93631,4.687335 2.70344,2.612914 3.59843,3.336983 3.76244,3.043922 0.11835,-0.211492 0.87358,-2.582804 1.67827,-5.269584 z m 11.09513,4.611502 c 0.2583,-0.545703 0.97483,-1.766093 1.59229,-2.711979 1.41379,-2.165784 3.06316,-5.122272 3.06316,-5.490702 0,-0.154262 -0.62508,-0.357669 -1.38906,-0.452019 -1.29559,-0.159999 -8.349,-1.33799 -9.64108,-1.610154 -0.3185,-0.06709 -0.63862,-0.02566 -0.71138,0.09205 -0.22254,0.36008 5.99857,11.164988 6.42843,11.164988 0.1034,0 0.39933,-0.446485 0.65764,-0.992188 z m -52.15111,-6.23335 c 0.757,-0.481544 2.32885,-1.40235 3.49302,-2.046232 1.16417,-0.643882 2.59292,-1.441291 3.174999,-1.772023 0.582084,-0.330732 1.742943,-0.959453 2.579688,-1.397161 0.836743,-0.437706 1.521353,-0.853646 1.521353,-0.924314 0,-0.07067 -3.690936,-0.128482 -8.20208,-0.128482 -5.71291,0 -8.20208,0.087 -8.20208,0.286668 0,0.157666 0.57151,1.199462 1.27004,2.315104 0.69852,1.11564 1.62126,2.590221 2.05052,3.276844 0.42926,0.686625 0.81596,1.252172 0.85933,1.25677 0.0434,0.0046 0.69822,-0.385627 1.45521,-0.867174 z m 21.48469,-0.571511 c 0.7276,-0.461179 2.13049,-1.28919 3.11753,-1.840023 l 1.79462,-1.001514 -1.76901,-3.34581 c -0.97295,-1.840198 -2.08606,-3.941368 -2.47358,-4.669268 -0.38751,-0.727901 -1.33476,-2.811494 -2.10499,-4.630208 -0.77023,-1.818714 -1.49714,-3.410511 -1.61537,-3.537331 -0.11822,-0.126818 -0.46861,0.647089 -0.77864,1.719791 -0.31003,1.072706 -0.67152,2.248027 -0.80331,2.611829 -0.13178,0.363802 -0.66525,2.256682 -1.18549,4.206399 -0.52023,1.949717 -1.00603,3.642275 -1.07956,3.761237 -0.16832,0.272354 0.53916,1.661369 2.70236,5.305647 1.92081,3.23592 1.53512,3.105449 4.19544,1.419251 z m 44.18193,-2.529831 c -0.99653,-2.328236 -2.81663,-5.808104 -3.03923,-5.810713 -0.0728,-7.94e-4 -0.82572,1.308391 -1.67324,2.909429 -1.11034,2.09753 -1.44306,2.946855 -1.19063,3.039354 1.1155,0.408757 6.7122,2.154615 6.77266,2.112692 0.0398,-0.02758 -0.35152,-1.040426 -0.86956,-2.250762 z m -11.25024,-4.798357 c -1.33872,-2.3769 -2.73662,-4.890838 -3.10642,-5.586531 -0.36981,-0.69569 -0.76643,-1.231471 -0.88138,-1.190625 -0.3394,0.120605 -5.53911,8.970803 -5.40144,9.193561 0.0693,0.112049 0.81403,0.281578 1.65507,0.37673 0.84104,0.09515 1.88549,0.241726 2.32102,0.325718 2.43858,0.470284 7.68384,1.329611 7.75912,1.271167 0.0485,-0.03761 -1.00724,-2.013119 -2.34597,-4.39002 z m -19.4567,3.345395 c 5.55816,-0.667208 7.08144,-0.88319 7.22229,-1.024041 0.0417,-0.04172 -0.13325,-0.325451 -0.38884,-0.630502 -0.25558,-0.305051 -1.00672,-1.246875 -1.66918,-2.092939 -3.98181,-5.085334 -5.07867,-6.432994 -5.2351,-6.432171 -0.29662,0.0016 -5.86354,10.127749 -5.86354,10.665753 0,0.239943 -0.3586,0.269317 5.93437,-0.4861 z m 25.03592,-2.535672 c 0.88309,-1.761659 1.56325,-3.245384 1.51147,-3.297171 -0.246,-0.245999 -9.50711,-4.92053 -9.58595,-4.838493 -0.0496,0.05164 1.23766,2.475137 2.86063,5.385553 3.21691,5.768787 3.32509,5.953125 3.49359,5.953125 0.0631,0 0.83717,-1.441357 1.72026,-3.203014 z m -31.32083,0.81134 c 3.40292,-6.393378 4.88339,-9.303258 4.78387,-9.402773 -0.0631,-0.06307 -2.12817,0.307687 -4.58911,0.823915 -2.46094,0.516226 -4.86694,1.009605 -5.34667,1.096394 -0.47974,0.08679 -0.83692,0.290147 -0.79375,0.451908 0.2207,0.82695 4.60922,8.872812 4.80612,8.811479 0.12634,-0.03936 0.63913,-0.840771 1.13954,-1.780923 z m 15.73154,-1.114055 c 3.12388,-5.070535 4.43078,-7.295835 4.58397,-7.805208 l 0.17902,-0.595312 h -6.36783 c -4.99505,0 -6.36783,0.07296 -6.36783,0.33842 0,0.186129 1.14967,1.823239 2.55482,3.638021 3.61575,4.669808 4.33515,5.548558 4.54243,5.548558 0.10045,0 0.49439,-0.506015 0.87542,-1.124479 z m -38.072361,-0.191794 6.015941,-0.0066 -0.62283,-1.389063 c -0.34256,-0.763984 -0.93637,-2.066044 -1.31958,-2.893462 -0.38322,-0.827421 -0.69675,-1.566643 -0.69675,-1.642716 0,-0.07607 -0.592494,-1.40395 -1.316651,-2.950839 l -1.316646,-2.812526 -1.792203,1.813703 c -2.54081,2.571281 -9.08694,8.738356 -9.79586,9.228624 -1.17468,0.812379 -0.71734,0.989777 2.11667,0.821039 1.49159,-0.08881 5.41915,-0.164463 8.727909,-0.168117 z m -3.292049,-9.442028 c 1.51818,-1.47868 2.68171,-2.815696 2.58564,-2.971144 -0.11845,-0.191654 -0.31977,-0.197747 -0.62543,-0.01892 -0.40279,0.235649 -3.03111,0.829784 -11.89399,2.688667 -2.53869,0.532463 -2.71197,0.609848 -2.71197,1.211167 0,0.792824 1.29847,4.686239 2.25046,6.747949 l 0.70631,1.529617 3.46433,-3.249409 c 1.90539,-1.787175 4.70648,-4.459237 6.22465,-5.937919 z m 12.2087,2.820802 c 0.8891,-3.128698 1.73797,-5.973493 1.88639,-6.321764 l 0.26986,-0.633224 -2.59129,0.176445 c -2.67332,0.182031 -5.822512,0.614884 -6.208317,0.853324 -0.120687,0.07459 -0.219432,0.239244 -0.219432,0.365902 0,0.227875 4.222539,9.842061 4.780579,10.88476 0.15916,0.297391 0.32905,0.500748 0.37753,0.451905 0.0485,-0.04884 0.81559,-2.648651 1.70468,-5.777348 z m 44.64743,0.701873 c -0.85869,-1.125799 -5.69538,-6.365266 -5.96477,-6.46149 -0.10945,-0.03909 -0.40452,0.318096 -0.65573,0.79375 -0.2512,0.475652 -0.66126,1.207688 -0.91125,1.626741 -0.2661,0.446066 -0.34483,0.805341 -0.18993,0.866663 0.14552,0.05761 2.05052,1.034357 4.23333,2.170549 2.18282,1.136193 4.01512,2.029357 4.0718,1.984812 0.0567,-0.04455 -0.20588,-0.486008 -0.58345,-0.981025 z m -34.97376,-1.89335 c 1.01864,-0.208614 2.74505,-0.572207 3.83646,-0.807985 2.56591,-0.554318 3.20637,-0.676965 3.77031,-0.722003 0.25466,-0.02035 0.46302,-0.06576 0.46302,-0.100938 0,-0.342591 -6.04713,-5.644264 -6.43789,-5.644264 -0.19634,0 -1.53681,0.247923 -2.97882,0.55094 -1.44201,0.303016 -2.89435,0.581493 -3.22744,0.618836 -0.33308,0.03734 -0.70445,0.176374 -0.82526,0.308957 -0.12081,0.132583 0.38426,1.647605 1.12238,3.366717 1.18664,2.763776 1.40472,3.10733 1.88359,2.967349 0.29786,-0.08707 1.375,-0.328993 2.39365,-0.537609 z m 24.15529,-2.181961 c -0.22037,-0.254661 -1.74744,-2.129895 -3.39349,-4.167187 -1.64605,-2.037292 -3.53242,-4.35901 -4.19192,-5.159375 -0.6595,-0.800364 -1.27638,-1.550685 -1.37083,-1.667377 -0.0944,-0.116695 -0.49278,0.716743 -0.88518,1.852083 -0.39241,1.135338 -0.81721,2.302378 -0.94402,2.593419 -0.1268,0.291042 -0.55729,1.422136 -0.95665,2.513542 -0.39936,1.091406 -0.82637,2.024308 -0.9489,2.073119 -0.12255,0.04881 -0.16168,0.187645 -0.087,0.308525 0.0747,0.12088 0.0151,0.537421 -0.13253,0.925647 -0.1476,0.388226 -0.20096,0.814935 -0.11857,0.948246 0.0843,0.136366 3.05402,0.242379 6.78977,0.242379 6.30004,0 6.61947,-0.02371 6.2393,-0.463021 z m -11.98447,-6.992431 c 1.89122,-5.521616 1.83885,-5.623015 -1.88815,-3.655481 -4.31891,2.280018 -5.74246,3.113632 -6.64178,3.88938 l -0.85702,0.739262 2.04765,1.769356 c 1.1262,0.973145 2.64296,2.306357 3.37056,2.96269 l 1.32292,1.193334 0.5888,-1.305967 c 0.32385,-0.71828 1.2495,-3.234939 2.05702,-5.592574 z m 14.68952,5.198609 c 0.61909,-0.950219 1.07956,-1.760516 1.02327,-1.800656 -0.0563,-0.04014 -0.87627,-0.666258 -1.82215,-1.391372 -2.22875,-1.708555 -7.77352,-5.134462 -8.31004,-5.134462 -0.0695,0 1.35443,1.846033 3.16421,4.102293 1.80979,2.256261 3.55914,4.516975 3.88744,5.023808 0.32831,0.506833 0.67224,0.922988 0.76429,0.92479 0.0921,0.0019 0.67389,-0.774179 1.29298,-1.724401 z m -57.51483,0.51484 c 1.43476,-0.376021 2.84678,-0.72993 3.13782,-0.786469 3.21635,-0.624819 8.33438,-1.872512 8.33438,-2.031785 0,-0.210855 -2.16279,-4.070345 -4.69141,-8.371821 l -1.45847,-2.481038 -0.80631,1.290413 c -0.44347,0.709726 -1.73373,2.838225 -2.86724,4.729995 -1.13351,1.891771 -2.6314,4.329076 -3.32864,5.416235 -1.54695,2.412018 -1.77036,2.91814 -1.28816,2.91814 0.19766,0 1.53327,-0.307652 2.96803,-0.68367 z m 0.23156,-7.782996 c 1.04911,-1.819011 2.33023,-4.021667 2.84693,-4.894792 1.078,-1.8216 1.01269,-2.026584 -0.80559,-2.528604 -0.68846,-0.190082 -2.47213,-0.78631 -3.96372,-1.324949 -1.49159,-0.538638 -2.71192,-0.903972 -2.71185,-0.811855 8e-5,0.09212 0.25677,0.822335 0.57044,1.6227 1.1012,2.809864 0.92581,8.664165 -0.45183,15.081249 -0.152,0.708017 1.43647,-1.804961 4.51562,-7.143749 z m 19.04371,4.451532 c 2.32951,-0.316553 4.2675,-0.596627 4.30664,-0.62239 0.15442,-0.101621 1.6397,-6.113774 1.64402,-6.654678 0.003,-0.362341 -0.56068,-1.111094 -1.51675,-2.015143 -4.08907,-3.866557 -4.96125,-4.633598 -5.14184,-4.521991 -0.23461,0.145 -1.68208,4.626316 -2.85324,8.833503 -0.46584,1.67349 -1.015536,3.522937 -1.22153,4.109886 -0.205997,0.586949 -0.374539,1.152496 -0.374539,1.256771 0,0.282578 0.528643,0.243015 5.157239,-0.385958 z m -5.626255,-2.533303 c 2.157255,-7.144062 3.597745,-12.106857 3.532935,-12.171669 -0.0782,-0.07824 -10.53099,3.369527 -10.70948,3.53246 -0.0577,0.05268 0.47074,1.080439 1.17434,2.283904 0.70361,1.203465 1.86297,3.25968 2.57636,4.569367 1.68916,3.10107 2.308171,4.101042 2.538644,4.101042 0.103468,0 0.502708,-1.041797 0.887201,-2.315104 z m 15.114635,1.246108 c 1.14285,-0.266795 2.1337,-0.540885 2.20191,-0.609084 0.12975,-0.12976 -3.90524,-5.153303 -4.1636,-5.183656 -0.0816,-0.0096 -0.36,0.72671 -0.61865,1.636215 -0.25866,0.909505 -0.63838,2.180871 -0.84382,2.825258 -0.20545,0.644387 -0.37354,1.385551 -0.37354,1.647031 0,0.53753 0.22138,0.519123 3.7977,-0.315764 z m 8.99828,-4.588867 c 1.28972,-0.69096 2.57959,-1.474899 2.86639,-1.742086 0.51491,-0.479718 0.51097,-0.48809 -0.31514,-0.669536 -0.46012,-0.101057 -1.15468,-0.227361 -1.54347,-0.280672 -1.07049,-0.146788 -6.13774,-0.135697 -7.18918,0.01574 -0.50932,0.07336 -1.51448,0.195721 -2.23368,0.271921 -0.7192,0.0762 -1.34829,0.179194 -1.39797,0.228875 -0.10865,0.108654 2.0194,2.765086 3.45758,4.31606 l 1.03172,1.112642 1.4894,-0.998323 c 0.81918,-0.549077 2.54463,-1.563653 3.83435,-2.254615 z m -12.82898,-4.991616 c -0.7225,-1.810078 -2.34825,-6.846075 -2.34825,-7.274022 0,-0.676678 -0.64304,-0.293114 -1.98595,1.184595 l -1.37893,1.517343 3.0715,2.968741 c 1.68933,1.632807 3.09953,2.974065 3.13379,2.980573 0.0343,0.0065 -0.18722,-0.613246 -0.49216,-1.37723 z m 6.63517,0.909381 0.91363,-0.198393 -0.92149,-0.543692 c -0.50682,-0.299032 -1.21561,-0.618167 -1.57509,-0.709192 -0.35948,-0.09102 -1.47625,-0.706691 -2.4817,-1.368155 -1.00546,-0.661463 -1.87039,-1.160383 -1.92206,-1.10871 -0.076,0.07602 0.58426,2.496614 1.11618,4.091932 0.12001,0.359929 2.88727,0.26687 4.87053,-0.16379 z m -27.23967,-6.568993 c -0.10915,-3.238772 -0.20295,-3.939063 -0.53613,-4.002701 -0.47738,-0.09117 -9.61314,3.53147 -9.72087,3.854664 -0.1042,0.312592 0.66651,0.667666 4.43617,2.043782 1.81901,0.664033 3.84307,1.423718 4.49791,1.688187 0.65485,0.264467 1.25016,0.449527 1.32292,0.411245 0.0728,-0.03829 0.0728,-1.836113 0,-3.995177 z m 7.35079,2.181458 c 2.806004,-0.922004 5.15951,-1.734061 5.23002,-1.804564 0.0705,-0.07051 -0.91563,-0.519308 -2.191416,-0.997339 -1.275784,-0.478028 -3.629294,-1.398569 -5.230024,-2.045644 -1.60073,-0.647076 -3.11877,-1.240166 -3.37343,-1.317977 -0.4268,-0.130405 -0.46302,0.171474 -0.46302,3.858133 0,3.635779 0.0421,3.998888 0.46302,3.991686 0.25466,-0.0044 2.75884,-0.762288 5.56485,-1.684295 z m 5.35833,-5.483423 c -0.29773,-1.073867 -0.80325,-2.994282 -1.12338,-4.267589 -0.41888,-1.6660518 -0.69662,-2.3137568 -0.990672,-2.3102958 -0.224737,0.0026 -1.480174,0.616979 -2.789859,1.365186 -1.309689,0.7482068 -3.148969,1.7785578 -4.087289,2.2896668 -1.43672,0.78259 -1.62467,0.962374 -1.19062,1.138872 5.138899,2.08965 10.58675,4.108993 10.64635,3.946263 0.0422,-0.115289 -0.16682,-1.088236 -0.46453,-2.162103 z m -14.89193,-1.622092 c 1.07009,-0.357015 1.08128,-0.57137 0.052,-0.997693 -0.44432,-0.184042 -2.30931,-1.210839 -4.14443,-2.281772 -1.83511,-1.0709328 -3.36523,-1.9170618 -3.40027,-1.8802878 -0.25908,0.271947 -0.95324,7.8488378 -0.74932,8.1790168 0.0593,0.09606 1.74457,-0.479428 3.74497,-1.278861 2.00041,-0.799433 4.02406,-1.582613 4.497,-1.740403 z m -9.22766,-1.388726 c 0.12826,-1.891771 0.15847,-3.5133038 0.0671,-3.6034108 -0.0913,-0.0901 -1.17808,0.09381 -2.41501,0.408692 -1.77543,0.451974 -2.24098,0.668909 -2.21111,1.030316 0.0901,1.0897468 4.11623,6.7686708 4.25439,6.0008608 0.0393,-0.218281 0.17634,-1.944687 0.30459,-3.836458 z m 26.17032,3.902604 c -0.0312,-0.109141 0.2478,-0.674688 0.62011,-1.256771 0.80469,-1.258083 2.6117,-4.8255418 2.6117,-5.1560988 0,-0.261506 -0.12929,-0.302556 -2.95845,-0.939289 -2.45549,-0.552633 -2.9352,-0.443773 -2.61449,0.593301 0.12579,0.406773 0.56273,2.1385718 0.97097,3.8484408 0.47383,1.984547 0.86608,3.108854 1.08462,3.108854 0.1883,0 0.31679,-0.0893 0.28554,-0.198437 z m -16.01853,-7.0114578 c -0.3597,-1.491589 -0.91242,-4.306895 -1.22827,-6.256237 l -0.57426,-3.54425514 -1.13485,1.355447 c -0.62416,0.74549604 -2.02011,2.50883214 -3.10212,3.91852714 l -1.96728,2.563082 1.127,0.641011 c 0.61985,0.352555 1.96044,1.096476 2.97908,1.653154 1.01865,0.556678 2.38787,1.3187568 3.04271,1.6935108 0.65485,0.37475 1.26293,0.682799 1.35131,0.684551 0.0884,0.0019 -0.13362,-1.217203 -0.49332,-2.7087908 z m 10.056857,-1.190937 c 0.984144,-0.605023 1.444789,-1.039199 1.303292,-1.228405 -1.272005,-1.700892 -2.855049,-3.758816 -2.972749,-3.864512 -0.081,-0.07276 -0.63675,-0.822568 -1.23495,-1.66623714 -0.84016,-1.184934 -1.11703,-1.425731 -1.21687,-1.058334 -0.30055,1.10600604 -1.77058,6.96250314 -2.14921,8.56230814 -0.75139,3.1748408 -0.79344,3.1444878 2.16866,1.5658098 1.41883,-0.7561768 3.264649,-1.7959598 4.101827,-2.3106298 z m -7.905837,2.16104 c 0.0957,-0.749499 2.02281,-8.8738901 2.52649,-10.65122814 0.44284,-1.56267696 0.24282,-1.68927996 -2.50882,-1.58792296 -1.34988,0.04972 -2.52627,0.162549 -2.6142,0.250729 -0.17241,0.172908 0.42434,4.5041661 1.03507,7.5125901 0.20679,1.018646 0.43923,2.209271 0.51654,2.645833 0.52146,2.9446508 0.83296,3.4901928 1.04492,1.829999 z m -14.67648,-2.402785 c 0.96008,-0.234378 1.85321,-0.523311 1.98475,-0.642077 0.25929,-0.234125 -0.48393,-1.312397 -2.58978,-3.757232 -0.95616,-1.110088 -1.3753,-1.433716 -1.5206,-1.174093 -0.28012,0.500546 -0.76175,5.434223 -0.5774,5.914643 0.0855,0.222827 0.32655,0.326994 0.55437,0.239573 0.22169,-0.08507 1.18859,-0.346438 2.14866,-0.580814 z m 32.18604,-1.646716 c -0.099,-0.962086 -0.32239,-2.523154 -0.49632,-3.469039 L -90.036,0.67686106 -92.14995,3.1605132 c -2.40623,2.827072 -2.87738,3.455677 -2.71317,3.619894 0.1056,0.105598 2.10482,0.509505 3.56898,0.721053 0.32367,0.04677 0.65389,0.150426 0.73382,0.230357 0.0799,0.07993 0.45394,0.08633 0.83114,0.01423 0.67846,-0.129693 0.68388,-0.149868 0.50574,-1.880351 z m -27.51991,-1.269804 c 1.5316,-1.81233 4.87549,-6.2671621 4.88043,-6.5018421 0.002,-0.11086 -0.44224,-0.138046 -0.98794,-0.06041 -0.54571,0.07763 -2.48047,0.321956 -4.29948,0.542938 -1.81901,0.220983 -3.87284,0.47311196 -4.56406,0.56028696 -0.69123,0.08718 -1.25677,0.295796 -1.25677,0.4636 0,0.32888 4.75522,6.23577714 5.01998,6.23577714 0.0878,0 0.63132,-0.558157 1.20784,-1.240348 z M -92.327,1.3528561 c 0.88301,-1.08069604 1.5552,-2.04625104 1.49376,-2.14567304 -0.0615,-0.09942 -1.09661,-0.26143796 -2.30035,-0.36003196 -1.20375,-0.09859 -2.84347,-0.287417 -3.64384,-0.419608 -2.629462,-0.434287 -5.02708,-0.5926 -5.02708,-0.331933 0,0.596437 2.914392,4.6849401 4.989937,7.0002211 l 0.640793,0.714804 1.12065,-1.246439 c 0.61636,-0.685541 1.84312,-2.130645 2.72613,-3.2113401 z m -23.87103,-4.266687 4.52419,-0.601202 -0.91723,-2.137386 c -0.50447,-1.175562 -1.20921,-2.527279 -1.56607,-3.003817 l -0.64885,-0.866431 -1.67026,1.527889 c -0.91865,0.840341 -2.75024,2.420858 -4.07021,3.512264 -1.31997,1.091407 -2.40552,2.089156 -2.41233,2.217222 -0.0133,0.250917 0.006,0.249023 6.76076,-0.648539 z m 25.7706,0.438473 c 0,-0.06023 -0.80367,-0.738833 -1.78593,-1.508006 -0.98227,-0.769173 -2.77415,-2.284291 -3.98196,-3.366926 l -2.196008,-1.968431 -0.775812,0.743273 c -0.91984,0.881266 -2.98788,4.802351 -2.64469,5.014452 0.26975,0.166714 3.329625,0.546409 6.48961,0.805285 1.16417,0.09538 2.16628,0.22211 2.22691,0.281636 0.14476,0.142116 2.66788,0.140904 2.66788,-0.0013 z m -30.2416,-3.773651 0.58235,-0.614051 -0.52358,-2.050872 c -0.74765,-2.9285701 -2.12819,-7.2844691 -2.43192,-7.6732691 -0.36057,-0.461549 -0.60237,-0.41226 -0.64898,0.132292 -0.0218,0.254662 -0.1891,1.457852 -0.37181,2.673757 -0.26339,1.752918 -0.26611,2.942297 -0.0131,5.7433401 0.17549,1.942933 0.39023,3.718046 0.4772,3.944696 0.12713,0.331288 0.37279,0.220522 1.25282,-0.564872 0.60208,-0.537334 1.35675,-1.253291 1.67704,-1.591021 z m 12.19461,2.390653 c 0.33337,-0.0893 0.5715,-0.256739 0.52917,-0.372084 -0.10703,-0.291637 -3.73924,-3.160284 -3.85496,-3.044565 -0.10658,0.106584 1.18661,2.749724 1.59281,3.255512 0.29121,0.362622 0.80313,0.410221 1.73298,0.161137 z m 5.5173,-0.829075 c 0.29318,-0.549269 0.74975,-1.329378 1.01459,-1.733576 0.45223,-0.690197 0.37853,-0.667396 -1.21158,0.374824 -0.93121,0.610349 -1.90923,1.296879 -2.17339,1.52562 -0.46399,0.40178 -0.46399,0.422314 0,0.605247 1.17483,0.463193 1.82385,0.25178 2.37038,-0.772115 z m 13.44862,-1.779458 c 0.53283,-2.525834 0.1233,-9.5146461 -0.59992,-10.2378631 -0.22827,-0.228277 -1.81028,4.289933 -2.87105,8.1997151 l -0.45201,1.666015 1.70047,1.54279 1.70046,1.542794 0.1773,-0.959851 c 0.0975,-0.527917 0.25265,-1.317037 0.34475,-1.7536 z m -13.55278,-1.266499 c 0.83675,-0.582523 1.52135,-1.147461 1.52135,-1.255421 0,-0.291775 -7.57914,-0.5588 -9.23754,-0.325454 l -1.43234,0.201541 2.71248,1.906797 2.71247,1.906799 1.10112,-0.687568 c 0.60561,-0.378161 1.78572,-1.164174 2.62246,-1.746694 z m 10.22791,-5.7362931 c 0.58094,-1.814243 1.024,-3.330887 0.98457,-3.370321 -0.13127,-0.131268 -3.99907,3.738933 -5.047545,5.050676 l -1.032817,1.292148 0.774306,0.5580511 c 0.425866,0.306928 1.188086,0.934014 1.693826,1.393526 l 0.91952,0.835475 0.32594,-1.230463 c 0.17926,-0.676757 0.80125,-2.7148471 1.3822,-4.5290921 z m -24.08294,4.1204671 1.55234,-1.4271181 -2.73413,-2.73636 c -2.78969,-2.791947 -3.53576,-3.367892 -3.17261,-2.449153 0.10851,0.274519 0.68319,2.195764 1.27705,4.269436 0.59387,2.0736721 1.17994,3.7703121 1.30238,3.7703121 0.12244,0 0.92118,-0.642202 1.77497,-1.427117 z m -39.32622,99.6817819 c -0.1819,-0.0761 -0.33073,-0.47807 -0.33073,-0.89329 0,-0.65833 -0.11004,-0.76554 -0.85989,-0.83784 -0.76063,-0.0733 -0.8599,-0.17455 -0.8599,-0.87666 0,-0.69904 0.10075,-0.80351 0.8443,-0.8755 0.72807,-0.0705 0.85555,-0.1943 0.92604,-0.89936 0.16386,-1.63887 1.80154,-1.57534 1.80154,0.0699 0,0.61471 0.12626,0.7583 0.7276,0.8275 0.61346,0.0706 0.72761,0.20824 0.72761,0.87747 0,0.66494 -0.11555,0.80709 -0.71204,0.87596 -0.58583,0.0677 -0.72653,0.2318 -0.79375,0.92605 -0.0816,0.84317 -0.64438,1.15147 -1.47078,0.80578 z m 36.08516,-1.96554 c -0.38342,-0.3016 -0.69714,-0.77785 -0.69714,-1.05833 0,-0.70146 0.92791,-1.5683 1.67879,-1.5683 1.24238,0 2.02315,1.87913 1.09934,2.64583 -0.21828,0.18116 -0.39688,0.23146 -0.39688,0.11177 0,-0.11968 -0.14287,-0.0747 -0.3175,0.0999 -0.42792,0.42792 -0.55676,0.40616 -1.36661,-0.23087 z m 98.04536,-23.317045 c -0.44954,-0.449532 -0.39376,-1.685107 0.0983,-2.177142 0.87461,-0.874607 2.49464,-0.169736 2.49464,1.085405 0,1.114316 -1.80876,1.875888 -2.59291,1.091737 z m -131.07466,-3.529618 c -0.4928,-1.081567 -0.003,-2.086922 1.06725,-2.190205 1.05307,-0.101637 1.63158,0.321127 1.63158,1.192323 0,1.143056 -0.4639,1.67 -1.47019,1.67 -0.73104,0 -0.98594,-0.139438 -1.22864,-0.672118 z m 16.54418,-5.726906 c -0.69356,-0.335402 -0.99687,-1.356334 -0.61495,-2.069947 0.40673,-0.759984 1.49412,-0.956852 2.12609,-0.384921 0.69572,0.629611 0.69975,2.123694 0.007,2.494584 -0.61079,0.326888 -0.76831,0.322768 -1.51787,-0.03972 z m -9.149,-12.116469 c -0.35634,-0.343715 -0.46302,-0.883417 -0.46302,-2.342639 v -1.896033 h -1.9338 c -2.3881,0 -3.09927,-0.386329 -2.62546,-1.426224 0.30102,-0.660672 0.40609,-0.690443 2.43692,-0.690443 h 2.12234 v -2.075659 c 0,-1.674847 0.0934,-2.160217 0.48386,-2.513541 1.1538,-1.044178 1.89739,-0.0045 1.89739,2.652995 v 1.914805 l 2.15493,0.07685 c 1.70965,0.06097 2.21508,0.172519 2.44604,0.539866 0.21177,0.336815 0.21177,0.589227 0,0.926042 -0.23096,0.367348 -0.73639,0.478899 -2.44604,0.539866 l -2.15493,0.07685 v 1.812073 c 0,1.413735 -0.11438,1.949378 -0.52036,2.436696 -0.36827,0.442053 -0.52412,0.508622 -0.53322,0.227748 -0.008,-0.259196 -0.0803,-0.295537 -0.20724,-0.104756 -0.13382,0.201109 -0.33864,0.152979 -0.65741,-0.154488 z m 121.31146,-3.71775 c -0.55253,-0.222089 -0.59532,-0.402479 -0.59532,-2.509925 V 35.17868 l -2.19751,0.06056 c -2.46654,0.06798 -2.82957,-0.05603 -2.82957,-0.966605 0,-0.901293 0.72299,-1.18432 3.02532,-1.18432 h 2.00176 v -2.097768 c 0,-1.554284 0.10772,-2.205484 0.41578,-2.513541 0.22867,-0.228677 0.51782,-0.415774 0.64256,-0.415774 0.12473,0 0.41388,0.187097 0.64256,0.415774 0.30805,0.308057 0.41577,0.959257 0.41577,2.513541 v 2.097768 h 2.21656 c 2.40331,0 2.92292,0.258328 2.76469,1.3745 -0.0822,0.580083 -0.20602,0.613592 -2.53385,0.68595 l -2.4474,0.07607 v 2.186115 c 0,1.347531 -0.12179,2.307902 -0.3175,2.503612 -0.36498,0.364976 -0.40343,0.366402 -1.20385,0.04467 z M -39.363,23.563022 c -0.44429,-0.830157 -0.30471,-1.793568 0.32361,-2.23366 0.75858,-0.531334 1.07325,-0.518901 1.80199,0.0712 0.50225,0.406691 0.56752,0.63795 0.41282,1.462561 -0.10106,0.538718 -0.2968,0.909621 -0.43497,0.824227 -0.13817,-0.08539 -0.25121,-0.04729 -0.25121,0.08467 0,0.477594 -1.58022,0.299286 -1.85224,-0.209 z m -21.08381,-7.615909 c -0.1728,-0.109876 -0.44005,-0.530828 -0.59388,-0.93545 -0.24157,-0.635376 -0.19136,-0.824024 0.36829,-1.383679 0.75534,-0.755332 1.12965,-0.800983 1.9361,-0.236122 0.69832,0.489122 0.7894,1.730217 0.17226,2.347349 -0.44002,0.440023 -1.35826,0.541417 -1.88277,0.207902 z"
         id="path882" /></g></g></svg>
