<svg version="1.2" xmlns="http://www.w3.org/2000/svg" viewBox="0 0 24 24" width="24" height="24">
	<title>logo-svg</title>
	<style>
		.s0 { fill: #000000 } 
	</style>
	<path id="Layer" fill-rule="evenodd" class="s0" d="m24 12q0 1.6-0.4 3.1c-0.6 2.1-1.7 3.9-3.1 5.4-1.5 1.5-3.3 2.5-5.4 3.1q-1.5 0.4-3.1 0.4-1.6 0-3.1-0.4c-2.1-0.6-3.9-1.7-5.4-3.1-1.5-1.5-2.5-3.3-3.1-5.4q-0.4-1.5-0.4-3.1 0-1.6 0.4-3.1c0.6-2.1 1.6-3.9 3.1-5.4 1.5-1.4 3.3-2.5 5.4-3.1q1.5-0.4 3.1-0.4 1.6 0 3.1 0.4c2.1 0.6 3.9 1.6 5.4 3.1 1.5 1.5 2.5 3.3 3.1 5.4q0.4 1.5 0.4 3.1zm-11.6-10.2q1.2 0.1 2.2 0.4l-0.3 1.2c1.5 0.4 2.9 1.2 4 2.3l0.9-0.9q0.8 0.8 1.3 1.7l0.5-0.3q-0.6-0.9-1.5-1.7c-1.3-1.3-2.9-2.3-4.7-2.8q-1.2-0.3-2.4-0.4zm3.1 9.3l3.7-1c-0.4-1.3-1-2.4-2-3.3l-2.7 2.7q-0.6-0.7-1.6-1l1-3.7q-0.9-0.2-1.9-0.2-1 0-1.9 0.2l1 3.7c-0.7 0.2-1.2 0.5-1.6 1l-2.7-2.7c-1 0.9-1.6 2-2 3.3l3.7 1q-0.1 0.4-0.1 0.9 0 0.5 0.1 0.9l-3.7 1c0.4 1.3 1 2.4 1.9 3.3l2.7-2.7c0.5 0.5 1 0.8 1.7 1l-1 3.7q0.9 0.2 1.9 0.2 1 0 1.9-0.2l-1-3.7c0.7-0.2 1.2-0.5 1.6-0.9l2.7 2.6c0.9-0.9 1.6-2 2-3.3l-3.7-1q0.1-0.4 0.1-0.9 0-0.5-0.1-0.9zm-12.5-4.9l0.5 0.3q0.5-0.9 1.3-1.7l0.9 0.9c1.1-1.1 2.5-1.9 4-2.3l-0.3-1.2q1-0.3 2-0.3v-0.5q-1.1 0-2.2 0.3c-1.8 0.5-3.4 1.5-4.7 2.8q-0.9 0.8-1.5 1.7zm0 10.4q-0.5-0.9-0.8-2l1.2-0.3q-0.3-1.1-0.3-2.3 0-1.2 0.3-2.3l-1.2-0.3q0.3-1.1 0.8-2l-0.5-0.3q-0.5 1-0.8 2.1-0.4 1.4-0.4 2.8 0 1.4 0.4 2.8 0.3 1.1 0.8 2.1zm8.5 5.5q-1.1-0.1-2.1-0.3l0.4-1.2c-1.6-0.5-2.9-1.3-4-2.4l-0.9 0.9q-0.8-0.7-1.4-1.6l-0.4 0.2q0.6 1 1.4 1.8c1.3 1.3 3 2.3 4.8 2.8q1.1 0.2 2.2 0.3zm9.5-4.4l-0.4-0.2q-0.6 0.9-1.3 1.6l-0.9-0.9c-1.1 1.1-2.5 1.9-4 2.4l0.3 1.2q-1.1 0.3-2.2 0.3v0.5q1.2 0 2.3-0.3c1.9-0.5 3.5-1.5 4.8-2.8q0.8-0.8 1.4-1.8zm1.4-3q0.3-1.3 0.3-2.7 0-1.5-0.3-2.8-0.3-1.1-0.9-2.1l-0.4 0.2q0.5 1 0.8 2l-1.2 0.3q0.3 1.2 0.3 2.4 0 1.2-0.3 2.3l1.2 0.3q-0.3 1-0.8 2l0.4 0.2q0.6-1 0.9-2.1z"/>
</svg>